<svg xmlns="http://www.w3.org/2000/svg" viewBox="0 0 268 63"><defs><style>.cls-1{fill:#fff;}.cls-2{fill:#4285f4;}.cls-3{fill:#34a853;}.cls-4{fill:#fbbc05;}.cls-5{fill:#ea4335;}.cls-6{fill:none;}</style></defs><g id="Layer_2" data-name="Layer 2"><g id="Layer_1-2" data-name="Layer 1"><rect x="0.75" y="0.75" width="266.5" height="61.5" rx="10.52"/><path class="cls-1" d="M256.73,1.5a9.76,9.76,0,0,1,9.77,9.77V51.73a9.76,9.76,0,0,1-9.77,9.77H11.27A9.76,9.76,0,0,1,1.5,51.73V11.27A9.76,9.76,0,0,1,11.27,1.5H256.73m0-1.5H11.27A11.28,11.28,0,0,0,0,11.27V51.73A11.28,11.28,0,0,0,11.27,63H256.73A11.28,11.28,0,0,0,268,51.73V11.27A11.28,11.28,0,0,0,256.73,0Z"/><path class="cls-2" d="M52.65,32a24.5,24.5,0,0,0-.39-4.34h-20v8.23H43.69a9.84,9.84,0,0,1-4.27,6.39v5.35h6.89C50.33,43.9,52.65,38.45,52.65,32Z"/><path class="cls-3" d="M32.25,52.75a20.24,20.24,0,0,0,14.06-5.14l-6.89-5.35a12.78,12.78,0,0,1-19.07-6.7H13.28V41A21.22,21.22,0,0,0,32.25,52.75Z"/><path class="cls-4" d="M20.35,35.54a12.34,12.34,0,0,1,0-8.08V22H13.28a21,21,0,0,0,0,19l5.51-4.28Z"/><path class="cls-5" d="M32.25,18.71a11.57,11.57,0,0,1,8.13,3.17l6.09-6.09a20.42,20.42,0,0,0-14.22-5.54A21.21,21.21,0,0,0,13.28,22l7.07,5.48A12.69,12.69,0,0,1,32.25,18.71Z"/><path class="cls-6" d="M11,10.25H53.5v42.5H11Z"/><path class="cls-1" d="M65.08,26.3H62.6L69.17,8.9h2.52l6.57,17.4H75.78L74.1,21.59H66.78Zm5.3-14.66L67.54,19.5h5.78l-2.84-7.86Z"/><path class="cls-1" d="M84.53,26.69a5.24,5.24,0,0,1-4-1.84,6.58,6.58,0,0,1-1.65-4.5,6.58,6.58,0,0,1,1.65-4.5,5.25,5.25,0,0,1,4-1.85,5.18,5.18,0,0,1,2.4.56A4.21,4.21,0,0,1,88.59,16h.1l-.1-1.65V8.9h2.24V26.3H88.69V24.65h-.1a4.13,4.13,0,0,1-1.66,1.48A5.06,5.06,0,0,1,84.53,26.69Zm.37-2a3.45,3.45,0,0,0,2.7-1.19,4.4,4.4,0,0,0,1.09-3.11,4.44,4.44,0,0,0-1.09-3.09,3.6,3.6,0,0,0-5.4,0,4.44,4.44,0,0,0-1.1,3.09,4.41,4.41,0,0,0,1.1,3.09A3.49,3.49,0,0,0,84.9,24.65Z"/><path class="cls-1" d="M98.42,26.69a5.21,5.21,0,0,1-4-1.84,6.54,6.54,0,0,1-1.66-4.5,6.54,6.54,0,0,1,1.66-4.5,5.22,5.22,0,0,1,4-1.85,5.16,5.16,0,0,1,2.39.56A4.24,4.24,0,0,1,102.48,16h.09l-.09-1.65V8.9h2.23V26.3h-2.14V24.65h-.09a4.16,4.16,0,0,1-1.67,1.48A5,5,0,0,1,98.42,26.69Zm.36-2a3.45,3.45,0,0,0,2.7-1.19,4.4,4.4,0,0,0,1.09-3.11,4.44,4.44,0,0,0-1.09-3.09A3.44,3.44,0,0,0,98.78,16a3.5,3.5,0,0,0-2.7,1.22A4.44,4.44,0,0,0,95,20.35a4.4,4.4,0,0,0,1.09,3.09A3.49,3.49,0,0,0,98.78,24.65Z"/><path class="cls-1" d="M117.5,26.5a3.4,3.4,0,0,1-2.42-.9,3.34,3.34,0,0,1-1-2.5V16.43H112v-2h2.09V10.74h2.24v3.65h2.91v2h-2.91v5.94A2.15,2.15,0,0,0,116.8,24a1.49,1.49,0,0,0,1,.43,2.33,2.33,0,0,0,.53-.06,3.24,3.24,0,0,0,.47-.16l.71,2A6.09,6.09,0,0,1,117.5,26.5Z"/><path class="cls-1" d="M120.59,20.35a6.32,6.32,0,0,1,1.73-4.55,6.25,6.25,0,0,1,8.78,0,6.29,6.29,0,0,1,1.75,4.55,6.21,6.21,0,0,1-1.75,4.54,6.25,6.25,0,0,1-8.78,0A6.3,6.3,0,0,1,120.59,20.35Zm2.24,0A4.33,4.33,0,0,0,124,23.46a3.82,3.82,0,0,0,5.54,0,4.33,4.33,0,0,0,1.12-3.11,4.3,4.3,0,0,0-1.12-3.09,3.75,3.75,0,0,0-5.54,0A4.3,4.3,0,0,0,122.83,20.35Z"/><path class="cls-1" d="M72.33,41.75h8.53a5,5,0,0,1,.12.7,5.87,5.87,0,0,1,0,.83,9.65,9.65,0,0,1-.51,3.16,7.3,7.3,0,0,1-1.6,2.65A8,8,0,0,1,76.12,51a9.49,9.49,0,0,1-3.72.68A9.26,9.26,0,0,1,68.83,51a8.75,8.75,0,0,1-2.92-1.89,9.06,9.06,0,0,1-2.7-6.52,9,9,0,0,1,2.7-6.52,8.75,8.75,0,0,1,2.92-1.89,9.93,9.93,0,0,1,7.35.05,8.42,8.42,0,0,1,2.86,2l-2.26,2.22A6.21,6.21,0,0,0,70.11,37a5.85,5.85,0,0,0-1.87,1.21A5.67,5.67,0,0,0,67,40.13a6.6,6.6,0,0,0,0,4.94A5.55,5.55,0,0,0,68.25,47a5.94,5.94,0,0,0,1.89,1.21,6.16,6.16,0,0,0,2.28.42,6,6,0,0,0,2.35-.4,5.52,5.52,0,0,0,1.64-1A3.82,3.82,0,0,0,77.25,46a6,6,0,0,0,.55-1.5H72.33Z"/><path class="cls-1" d="M88.89,39a6.57,6.57,0,0,1,2.54.48,5.88,5.88,0,0,1,3.3,3.31,7,7,0,0,1,0,5.11,5.88,5.88,0,0,1-1.31,2,6,6,0,0,1-2,1.31,7.13,7.13,0,0,1-5.09,0,6,6,0,0,1-2-1.31,5.88,5.88,0,0,1-1.31-2,7,7,0,0,1,0-5.11,5.88,5.88,0,0,1,3.3-3.31A6.58,6.58,0,0,1,88.89,39Zm0,9.75a3.17,3.17,0,0,0,1.17-.23,2.88,2.88,0,0,0,1-.67,3.06,3.06,0,0,0,.7-1.07,4.24,4.24,0,0,0,0-2.87,3.06,3.06,0,0,0-.7-1.07,3,3,0,0,0-1-.67,3.17,3.17,0,0,0-1.17-.23,3.2,3.2,0,0,0-1.2.23,3.15,3.15,0,0,0-1,.67,3.21,3.21,0,0,0-.7,1.07,4.24,4.24,0,0,0,0,2.87,3.21,3.21,0,0,0,.7,1.07,3,3,0,0,0,1,.67A3.2,3.2,0,0,0,88.89,48.75Z"/><path class="cls-1" d="M102.89,39a6.57,6.57,0,0,1,2.54.48,5.94,5.94,0,0,1,2,1.31,6.25,6.25,0,0,1,1.31,2,7.18,7.18,0,0,1,0,5.11,6.19,6.19,0,0,1-1.31,2,6.09,6.09,0,0,1-2,1.31,7.1,7.1,0,0,1-5.08,0A5.91,5.91,0,0,1,97,47.9a7.18,7.18,0,0,1,0-5.11,6.12,6.12,0,0,1,1.32-2,5.89,5.89,0,0,1,2-1.31A6.57,6.57,0,0,1,102.89,39Zm0,9.75a3.18,3.18,0,0,0,1.18-.23,3,3,0,0,0,1-.67,3.18,3.18,0,0,0,.69-1.07,4.09,4.09,0,0,0,0-2.87,3.18,3.18,0,0,0-.69-1.07,3.13,3.13,0,0,0-1-.67A3.07,3.07,0,0,0,100,43.91a4.09,4.09,0,0,0,0,2.87,3.18,3.18,0,0,0,.69,1.07,3,3,0,0,0,1,.67A3.15,3.15,0,0,0,102.89,48.75Z"/><path class="cls-1" d="M116.75,57a7.1,7.1,0,0,1-2.25-.33,6.5,6.5,0,0,1-1.71-.85,5.89,5.89,0,0,1-1.22-1.16,4.42,4.42,0,0,1-.7-1.26l3-1.22A2.85,2.85,0,0,0,115,53.6a3.29,3.29,0,0,0,4.11-.45,3.89,3.89,0,0,0,.88-2.7v-.82h-.2a3.74,3.74,0,0,1-1.47,1.22,4.8,4.8,0,0,1-2.15.45,5.2,5.2,0,0,1-2.08-.43,5.49,5.49,0,0,1-1.79-1.24,6.44,6.44,0,0,1-1.26-1.94,6.36,6.36,0,0,1-.49-2.52,6.45,6.45,0,0,1,1.75-4.5,5.46,5.46,0,0,1,1.79-1.23,5.21,5.21,0,0,1,2.08-.44,4.8,4.8,0,0,1,2.15.45,3.85,3.85,0,0,1,1.47,1.23h.2V39.39h3V50.45a7.66,7.66,0,0,1-.46,2.71,5.87,5.87,0,0,1-1.29,2.05,5.61,5.61,0,0,1-2,1.29A7,7,0,0,1,116.75,57Zm.12-8.51a3.36,3.36,0,0,0,1.16-.22,3,3,0,0,0,1-.63,3.18,3.18,0,0,0,.7-1,3.4,3.4,0,0,0,.27-1.4,3.46,3.46,0,0,0-.27-1.4,3.12,3.12,0,0,0-.7-1,3,3,0,0,0-1-.63,3.14,3.14,0,0,0-1.16-.22,3,3,0,0,0-1.14.22,2.8,2.8,0,0,0-1,.64,3.18,3.18,0,0,0-.7,1,3.74,3.74,0,0,0,0,2.79,3,3,0,0,0,.7,1,2.92,2.92,0,0,0,1,.63A3.21,3.21,0,0,0,116.87,48.44Z"/><path class="cls-1" d="M125.77,51.3V33.9H129V51.3Z"/><path class="cls-1" d="M142.84,48.44a6.61,6.61,0,0,1-2.23,2.35,6.17,6.17,0,0,1-3.41.9,6.5,6.5,0,0,1-2.52-.47,6.09,6.09,0,0,1-3.33-3.33,6.93,6.93,0,0,1,0-5,6.25,6.25,0,0,1,3.24-3.39,6,6,0,0,1,2.5-.51,6.44,6.44,0,0,1,2.55.48,5.05,5.05,0,0,1,1.87,1.31,5.73,5.73,0,0,1,1.15,2,7.91,7.91,0,0,1,.38,2.48v.29c0,.1,0,.19,0,.27a1.14,1.14,0,0,0,0,.27h-9a3.54,3.54,0,0,0,.4,1.25,3.06,3.06,0,0,0,.76.87,3,3,0,0,0,1,.52,4.06,4.06,0,0,0,1.1.15,3,3,0,0,0,1.81-.5,3.66,3.66,0,0,0,1.13-1.25ZM140,43.82a2.17,2.17,0,0,0-.21-.71,2.42,2.42,0,0,0-.54-.73,2.72,2.72,0,0,0-.87-.56,3.37,3.37,0,0,0-1.25-.22,2.92,2.92,0,0,0-1.8.59,3.07,3.07,0,0,0-1.1,1.63Z"/><path class="cls-1" d="M165.55,48.51a8.58,8.58,0,0,1-3,2.37A9.78,9.78,0,0,1,155,51a8.82,8.82,0,0,1-4.8-4.8,9.56,9.56,0,0,1,0-7.18,8.82,8.82,0,0,1,4.8-4.8,9.2,9.2,0,0,1,3.62-.7,8.7,8.7,0,0,1,3.68.73,8.46,8.46,0,0,1,2.83,2.11l-2.31,2.24A6.18,6.18,0,0,0,161,37.15a5.11,5.11,0,0,0-2.39-.53,6.25,6.25,0,0,0-2.29.42,5.7,5.7,0,0,0-1.86,1.21,5.78,5.78,0,0,0-1.25,1.88,6.86,6.86,0,0,0,0,4.94A5.78,5.78,0,0,0,154.47,47a5.7,5.7,0,0,0,1.86,1.21,6.25,6.25,0,0,0,2.29.42,5.55,5.55,0,0,0,2.59-.59,6.53,6.53,0,0,0,2-1.69Z"/><path class="cls-1" d="M174.64,50h-.19a5.48,5.48,0,0,1-1.35,1.17,3.86,3.86,0,0,1-2,.48,5,5,0,0,1-1.74-.3,4.38,4.38,0,0,1-1.42-.84,3.8,3.8,0,0,1-.95-1.29,3.9,3.9,0,0,1-.34-1.65A3.6,3.6,0,0,1,168,44.67a4.54,4.54,0,0,1,1.54-.82,6.62,6.62,0,0,1,1.93-.28,8.45,8.45,0,0,1,1.92.18,10,10,0,0,1,1.24.38v-.36a1.94,1.94,0,0,0-.75-1.57,2.87,2.87,0,0,0-1.87-.62,3.51,3.51,0,0,0-2.8,1.38l-2.31-1.58A6.29,6.29,0,0,1,172.09,39a6.19,6.19,0,0,1,4.23,1.3,4.91,4.91,0,0,1,1.46,3.86V51.3h-3.14Zm0-3.57a6.62,6.62,0,0,0-1.15-.43,5.32,5.32,0,0,0-1.3-.16,2.75,2.75,0,0,0-1.76.5,1.5,1.5,0,0,0-.62,1.23,1.38,1.38,0,0,0,.59,1.17,2.28,2.28,0,0,0,1.37.43,2.81,2.81,0,0,0,1.17-.23,2.65,2.65,0,0,0,.91-.61,2.73,2.73,0,0,0,.59-.87A2.82,2.82,0,0,0,174.64,46.47Z"/><path class="cls-1" d="M180.31,51.3V33.9h3.18V51.3Z"/><path class="cls-1" d="M197.38,48.44a6.61,6.61,0,0,1-2.23,2.35,6.17,6.17,0,0,1-3.41.9,6.5,6.5,0,0,1-2.52-.47,6,6,0,0,1-3.33-3.33,6.93,6.93,0,0,1,0-5,6,6,0,0,1,1.29-2,6.17,6.17,0,0,1,2-1.38,6,6,0,0,1,2.5-.51,6.44,6.44,0,0,1,2.55.48A5.14,5.14,0,0,1,196,40.79a5.71,5.71,0,0,1,1.14,2,7.63,7.63,0,0,1,.39,2.48v.29c0,.1,0,.19,0,.27a1.12,1.12,0,0,0,0,.27h-9a3.54,3.54,0,0,0,.4,1.25,3.06,3.06,0,0,0,.76.87,2.9,2.9,0,0,0,1,.52,4.06,4.06,0,0,0,1.1.15,3,3,0,0,0,1.81-.5,3.66,3.66,0,0,0,1.13-1.25Zm-2.9-4.62a1.92,1.92,0,0,0-.2-.71,2.42,2.42,0,0,0-.54-.73,2.72,2.72,0,0,0-.87-.56,3.37,3.37,0,0,0-1.25-.22,2.88,2.88,0,0,0-1.8.59,3.07,3.07,0,0,0-1.1,1.63Z"/><path class="cls-1" d="M202.61,41h.19a4.07,4.07,0,0,1,1.51-1.43,4.48,4.48,0,0,1,2.16-.52,4.84,4.84,0,0,1,2,.37,3.55,3.55,0,0,1,1.4,1,4.76,4.76,0,0,1,.83,1.6,7.53,7.53,0,0,1,.28,2.08V51.3h-3.19V44.47a2.76,2.76,0,0,0-.57-1.91,2.17,2.17,0,0,0-1.67-.62,2.39,2.39,0,0,0-1.15.28,2.68,2.68,0,0,0-.85.76A3.24,3.24,0,0,0,203,44.1a5,5,0,0,0-.18,1.37V51.3h-3.18V39.39h3Z"/><path class="cls-1" d="M222.45,49.87h-.2a3.61,3.61,0,0,1-1.36,1.29,4.49,4.49,0,0,1-2.29.53,5.08,5.08,0,0,1-2.17-.47,5.91,5.91,0,0,1-1.83-1.31,6.39,6.39,0,0,1-1.25-2,7.33,7.33,0,0,1,0-5.11,6.46,6.46,0,0,1,1.25-2,5.75,5.75,0,0,1,1.83-1.31A5.09,5.09,0,0,1,218.6,39a4.49,4.49,0,0,1,2.29.54,3.52,3.52,0,0,1,1.36,1.28h.2l-.2-1.7V33.9h3.19V51.3h-3Zm-3.19-1.12a3.24,3.24,0,0,0,1.2-.23,2.88,2.88,0,0,0,1-.67,3.23,3.23,0,0,0,.71-1.07,3.95,3.95,0,0,0,0-2.87,3.23,3.23,0,0,0-.71-1.07,3,3,0,0,0-1-.67,3.24,3.24,0,0,0-1.2-.23,2.9,2.9,0,0,0-1.2.25,3.16,3.16,0,0,0-1,.68,3.39,3.39,0,0,0-.71,1.07,4,4,0,0,0,0,2.82,3.39,3.39,0,0,0,.71,1.07,3.16,3.16,0,0,0,1,.68A3.06,3.06,0,0,0,219.26,48.75Z"/><path class="cls-1" d="M235.38,50h-.19a5.87,5.87,0,0,1-1.35,1.17,3.89,3.89,0,0,1-2,.48,5,5,0,0,1-1.74-.3,4.38,4.38,0,0,1-1.42-.84,3.8,3.8,0,0,1-1-1.29,3.9,3.9,0,0,1-.34-1.65,3.79,3.79,0,0,1,.36-1.67,3.92,3.92,0,0,1,1-1.27,4.69,4.69,0,0,1,1.55-.82,6.57,6.57,0,0,1,1.93-.28,8.45,8.45,0,0,1,1.92.18,10.54,10.54,0,0,1,1.24.38v-.36a1.94,1.94,0,0,0-.75-1.57,2.87,2.87,0,0,0-1.87-.62A3.5,3.5,0,0,0,230,43l-2.31-1.58A6.28,6.28,0,0,1,232.83,39a6.19,6.19,0,0,1,4.23,1.3,4.91,4.91,0,0,1,1.46,3.86V51.3h-3.14Zm0-3.57a6.94,6.94,0,0,0-1.15-.43,5.32,5.32,0,0,0-1.3-.16,2.78,2.78,0,0,0-1.77.5,1.52,1.52,0,0,0-.62,1.23,1.38,1.38,0,0,0,.6,1.17,2.26,2.26,0,0,0,1.37.43,2.84,2.84,0,0,0,1.17-.23,2.65,2.65,0,0,0,.91-.61,2.73,2.73,0,0,0,.59-.87A2.82,2.82,0,0,0,235.38,46.47Z"/><path class="cls-1" d="M241.05,39.39h3V41h.19a3,3,0,0,1,.59-.8,4.18,4.18,0,0,1,.81-.63,4.5,4.5,0,0,1,1-.44,3.48,3.48,0,0,1,1-.17,3.78,3.78,0,0,1,1.08.14,2.54,2.54,0,0,1,.76.35l-.85,2.84a3.7,3.7,0,0,0-.64-.23,3.59,3.59,0,0,0-.86-.08,2.77,2.77,0,0,0-1.2.25A2.64,2.64,0,0,0,245,43a3.55,3.55,0,0,0-.58,1.09,4.26,4.26,0,0,0-.21,1.36V51.3h-3.18Z"/></g></g></svg>